<?xml version="1.0" encoding="UTF-8"?>
<svg width="200px" height="200px" viewBox="0 0 200 200" version="1.1" xmlns="http://www.w3.org/2000/svg" xmlns:xlink="http://www.w3.org/1999/xlink">
    <title>404 Rabbit</title>
    <g id="404-Rabbit" stroke="none" stroke-width="1" fill="none" fill-rule="evenodd">
        <circle id="Background" fill="#F5F5F5" cx="100" cy="100" r="100"></circle>
        <g id="Rabbit" transform="translate(40, 30)">
            <!-- Rabbit Body -->
            <ellipse id="Body" fill="#FFFFFF" cx="60" cy="90" rx="40" ry="45"></ellipse>
            
            <!-- Rabbit Head -->
            <circle id="Head" fill="#FFFFFF" cx="60" cy="50" r="30"></circle>
            
            <!-- Rabbit Ears -->
            <path d="M45,30 C40,10 30,5 25,0 C25,20 30,30 35,35 Z" id="Left-Ear" fill="#FFFFFF" transform="translate(35, 17.5) rotate(-10) translate(-35, -17.5)"></path>
            <path d="M75,30 C80,10 90,5 95,0 C95,20 90,30 85,35 Z" id="Right-Ear" fill="#FFFFFF" transform="translate(85, 17.5) rotate(10) translate(-85, -17.5)"></path>
            
            <!-- Rabbit Face -->
            <circle id="Left-Eye" fill="#333333" cx="50" cy="45" r="3"></circle>
            <circle id="Right-Eye" fill="#333333" cx="70" cy="45" r="3"></circle>
            <ellipse id="Nose" fill="#FF9999" cx="60" cy="55" rx="5" ry="3"></ellipse>
            
            <!-- Rabbit Feet -->
            <ellipse id="Left-Foot" fill="#FFFFFF" cx="45" cy="130" rx="10" ry="5"></ellipse>
            <ellipse id="Right-Foot" fill="#FFFFFF" cx="75" cy="130" rx="10" ry="5"></ellipse>
            
            <!-- 404 Text -->
            <text id="404-Text" font-family="Arial-BoldMT, Arial" font-size="24" font-weight="bold" fill="#333333">
                <tspan x="40" y="95">404</tspan>
            </text>
        </g>
    </g>
</svg>
